<?xml version="1.0" encoding="utf-8"?>
<!-- Generator: Adobe Illustrator 16.0.0, SVG Export Plug-In . SVG Version: 6.00 Build 0)  -->
<!DOCTYPE svg PUBLIC "-//W3C//DTD SVG 1.1//EN" "http://www.w3.org/Graphics/SVG/1.1/DTD/svg11.dtd">
<svg version="1.1" id="Слой_1" xmlns="http://www.w3.org/2000/svg" xmlns:xlink="http://www.w3.org/1999/xlink" x="0px" y="0px"
	 width="501px" height="81px" viewBox="0 0 501 81" enable-background="new 0 0 501 81" xml:space="preserve">
<path fill="#FFFFFF" d="M112.181,27.054c6.581,0,9.546,3.522,9.546,9.593v13.484c0,1.298-0.417,1.715-1.714,1.715h-3.568
	c-1.298,0-1.715-0.417-1.715-1.715V36.833c0-2.224-1.205-3.429-3.522-3.429c-1.112,0-2.224,0.185-3.197,0.463
	c0.185,0.834,0.277,1.808,0.277,2.827v13.438c0,1.298-0.417,1.715-1.714,1.715h-3.568c-1.298,0-1.715-0.417-1.715-1.715V36.833
	c0-2.224-1.205-3.429-3.522-3.429c-0.973,0-1.807,0.139-2.734,0.371c-0.139,0-0.186,0.138-0.186,0.278v16.08
	c0,1.298-0.417,1.715-1.714,1.715h-3.568c-1.298,0-1.715-0.417-1.715-1.715V31.41c0-1.529,0.325-2.085,1.854-2.688
	c1.9-0.788,4.634-1.668,9.036-1.668c2.317,0,4.217,0.463,5.654,1.298C106.203,27.657,108.613,27.054,112.181,27.054"/>
<path fill="#FFFFFF" d="M136.599,27.054c7.322,0,11.076,3.708,11.076,9.778v5.978c0,6.071-3.754,9.732-11.076,9.732
	c-7.229,0-11.029-3.661-11.029-9.732v-5.978C125.57,30.762,129.37,27.054,136.599,27.054 M136.599,33.264
	c-2.688,0-4.031,1.205-4.031,3.476v6.116c0,2.225,1.343,3.476,4.031,3.476c2.734,0,4.078-1.251,4.078-3.476V36.74
	C140.677,34.469,139.333,33.264,136.599,33.264"/>
<path fill="#FFFFFF" d="M163.686,27.054c1.251,0,1.714,0.417,1.714,1.715v2.873c0,1.251-0.463,1.668-1.714,1.668h-1.715
	c-1.297,0-2.27,0.093-3.29,0.325c-0.232,0.046-0.278,0.185-0.278,0.324v16.172c0,1.298-0.417,1.715-1.668,1.715h-3.615
	c-1.297,0-1.715-0.417-1.715-1.715V31.179c0-1.53,0.325-2.086,1.854-2.688c1.761-0.695,4.634-1.298,8.898-1.437H163.686z"/>
<path fill="#FFFFFF" d="M198.872,27.055c3.939,0,7.137,0.741,8.759,1.529c1.529,0.695,1.715,1.066,1.715,2.595v21.039
	c0,6.071-3.013,10.287-10.566,10.287c-5.098,0-8.203-1.575-9.964-4.31c-0.787-1.251-0.556-2.085,0.742-2.734l2.595-1.344
	c1.298-0.695,1.9-0.463,2.688,0.603c0.787,1.112,1.853,1.761,3.799,1.761c2.41,0,3.708-1.251,3.708-3.753v-1.993
	c-1.298,0.278-2.734,0.464-4.31,0.464c-6.858,0-10.009-3.522-10.009-9.593v-4.495C188.029,30.577,191.551,27.055,198.872,27.055
	 M199.243,33.311c-2.873,0-4.217,1.205-4.217,3.8v4.449c0,2.177,1.437,3.382,3.893,3.382c1.297,0,2.456-0.139,3.429-0.324V33.913
	c0-0.139-0.046-0.231-0.186-0.278C201.328,33.45,200.309,33.311,199.243,33.311"/>
<path fill="#FFFFFF" d="M224.271,27.054c7.832,0,10.334,4.078,10.334,9.778v11.771c0,1.668-0.37,2.131-1.715,2.688
	c-1.76,0.787-4.773,1.251-8.758,1.251c-8.434,0-10.612-2.688-10.612-7.646c0-5.793,3.197-7.602,10.798-7.602
	c1.204,0,2.548,0.047,3.29,0.093v-1.019c0-2.271-1.02-3.43-3.569-3.43c-1.853,0-3.012,0.603-3.846,1.715
	c-0.742,1.02-1.112,1.251-2.363,0.742l-2.549-1.066c-1.205-0.51-1.576-1.159-0.927-2.456
	C215.976,28.815,219.266,27.054,224.271,27.054 M223.715,42.625c-2.642,0-3.198,0.973-3.198,2.225c0,1.344,0.51,2.271,3.105,2.271
	c1.947,0,3.059-0.093,3.661-0.185c0.185-0.047,0.325-0.094,0.325-0.325v-3.893C226.728,42.717,224.966,42.625,223.715,42.625"/>
<path fill="#FFFFFF" d="M249.687,27.055c3.939,0,7.137,0.741,8.759,1.529c1.529,0.695,1.715,1.066,1.715,2.595v21.039
	c0,6.071-3.013,10.287-10.565,10.287c-5.098,0-8.202-1.575-9.964-4.31c-0.787-1.251-0.556-2.085,0.742-2.734l2.595-1.344
	c1.298-0.695,1.9-0.463,2.688,0.603c0.787,1.112,1.853,1.761,3.799,1.761c2.41,0,3.707-1.251,3.707-3.753v-1.993
	c-1.297,0.278-2.732,0.464-4.309,0.464c-6.858,0-10.009-3.522-10.009-9.593v-4.495C238.844,30.577,242.366,27.055,249.687,27.055
	 M250.058,33.311c-2.873,0-4.217,1.205-4.217,3.8v4.449c0,2.177,1.437,3.382,3.893,3.382c1.297,0,2.456-0.139,3.428-0.324V33.913
	c0-0.139-0.045-0.231-0.185-0.278C252.143,33.45,251.124,33.311,250.058,33.311"/>
<path fill="#FFFFFF" d="M274.948,27.054c7.691,0,11.168,4.449,11.168,9.778v2.827c0,1.39-0.604,2.317-2.409,2.317h-12.883v1.159
	c0,2.502,1.574,3.66,4.17,3.66c2.179,0,3.567-0.741,4.401-1.854c0.788-1.066,1.346-1.298,2.689-0.604l2.27,1.159
	c1.298,0.648,1.483,1.482,0.741,2.734c-1.714,2.734-4.912,4.31-10.195,4.31c-7.97,0-11.074-4.448-11.074-10.288v-4.912
	C263.826,30.669,267.765,27.054,274.948,27.054 M274.948,32.615c-2.688,0-4.124,1.251-4.124,3.568v0.742h8.248v-0.742
	C279.072,33.866,277.682,32.615,274.948,32.615"/>
<path fill="#2AC87D" d="M300.795,27.054c5.561,0,8.943,2.688,10.148,6.164c0.463,1.343,0.094,1.946-1.205,2.409l-2.966,0.973
	c-1.344,0.51-1.946,0.185-2.456-1.158c-0.603-1.483-1.854-2.364-3.8-2.364c-2.502,0-3.753,1.205-3.753,3.476v6.488
	c0,2.271,1.251,3.476,3.753,3.476c1.946,0,3.197-0.88,3.8-2.363c0.51-1.298,1.066-1.529,2.456-1.112l3.013,0.928
	c1.298,0.417,1.761,1.064,1.204,2.456c-1.622,3.846-4.958,6.116-10.657,6.116c-7.369,0-10.566-3.707-10.566-9.825v-5.839
	C289.766,30.808,293.194,27.054,300.795,27.054"/>
<path fill="#2AC87D" d="M325.332,27.054c7.831,0,10.334,4.078,10.334,9.778v11.771c0,1.668-0.37,2.131-1.716,2.688
	c-1.76,0.787-4.772,1.251-8.758,1.251c-8.434,0-10.612-2.688-10.612-7.646c0-5.793,3.197-7.602,10.799-7.602
	c1.203,0,2.548,0.047,3.29,0.093v-1.019c0-2.271-1.021-3.43-3.569-3.43c-1.854,0-3.012,0.603-3.846,1.715
	c-0.742,1.02-1.112,1.251-2.363,0.742l-2.549-1.066c-1.205-0.51-1.576-1.159-0.928-2.456
	C317.036,28.815,320.326,27.054,325.332,27.054 M324.775,42.625c-2.642,0-3.198,0.973-3.198,2.225c0,1.344,0.511,2.271,3.105,2.271
	c1.947,0,3.059-0.093,3.661-0.185c0.185-0.047,0.325-0.094,0.325-0.325v-3.893C327.787,42.717,326.026,42.625,324.775,42.625"/>
<path fill="#2AC87D" d="M345.167,51.847h-3.614c-1.252,0-1.669-0.417-1.669-1.715V23.904c0-1.298,0.417-1.715,1.669-1.715h3.614
	c1.298,0,1.715,0.417,1.715,1.715v26.228C346.882,51.43,346.465,51.847,345.167,51.847"/>
<path fill="#2AC87D" d="M362.249,27.054c5.561,0,8.943,2.688,10.148,6.164c0.463,1.343,0.093,1.946-1.205,2.409l-2.966,0.973
	c-1.344,0.51-1.945,0.185-2.456-1.158c-0.602-1.483-1.854-2.364-3.8-2.364c-2.502,0-3.753,1.205-3.753,3.476v6.488
	c0,2.271,1.251,3.476,3.753,3.476c1.946,0,3.198-0.88,3.8-2.363c0.511-1.298,1.066-1.529,2.456-1.112l3.012,0.928
	c1.299,0.417,1.762,1.064,1.205,2.456c-1.621,3.846-4.958,6.116-10.657,6.116c-7.369,0-10.566-3.707-10.566-9.825v-5.839
	C351.22,30.808,354.648,27.054,362.249,27.054"/>
<path fill="#2AC87D" d="M398.556,29.464v18.722c0,1.529-0.325,2.086-1.809,2.688c-1.946,0.788-4.865,1.669-9.5,1.669
	c-6.857,0-10.009-3.522-10.009-9.593V29.464c0-1.297,0.417-1.714,1.714-1.714h3.569c1.297,0,1.715,0.417,1.715,1.714v13.253
	c0,2.411,1.297,3.477,3.939,3.477c1.25,0,2.037-0.093,3.058-0.324c0.231-0.093,0.324-0.232,0.324-0.51V29.464
	c0-1.297,0.417-1.714,1.715-1.714h3.615C398.139,27.75,398.556,28.167,398.556,29.464"/>
<path fill="#2AC87D" d="M408.729,51.847h-3.614c-1.252,0-1.669-0.417-1.669-1.715V23.904c0-1.298,0.417-1.715,1.669-1.715h3.614
	c1.298,0,1.715,0.417,1.715,1.715v26.228C410.443,51.43,410.026,51.847,408.729,51.847"/>
<path fill="#2AC87D" d="M425.162,27.054c7.832,0,10.334,4.078,10.334,9.778v11.771c0,1.668-0.37,2.131-1.715,2.688
	c-1.76,0.787-4.772,1.251-8.758,1.251c-8.434,0-10.612-2.688-10.612-7.646c0-5.793,3.197-7.602,10.798-7.602
	c1.204,0,2.549,0.047,3.29,0.093v-1.019c0-2.271-1.02-3.43-3.568-3.43c-1.854,0-3.013,0.603-3.847,1.715
	c-0.741,1.02-1.111,1.251-2.362,0.742l-2.55-1.066c-1.204-0.51-1.575-1.159-0.927-2.456
	C416.867,28.815,420.157,27.054,425.162,27.054 M424.606,42.625c-2.642,0-3.198,0.973-3.198,2.225c0,1.344,0.51,2.271,3.105,2.271
	c1.946,0,3.059-0.093,3.661-0.185c0.185-0.047,0.324-0.094,0.324-0.325v-3.893C427.618,42.717,425.857,42.625,424.606,42.625"/>
<path fill="#2AC87D" d="M451.109,33.959c1.251,0,1.668-0.417,1.668-1.714v-2.781c0-1.297-0.417-1.714-1.668-1.714h-4.309v-3.847
	c0-1.298-0.418-1.715-1.669-1.715h-3.614c-1.251,0-1.715,0.417-1.715,1.715v3.847v6.209v8.063c0,8.157,3.337,10.707,11.261,10.473
	c1.297-0.046,1.714-0.417,1.714-1.761v-2.919c0-1.345-0.417-1.762-1.714-1.762c-3.104,0-4.263-0.694-4.263-4.31v-7.785H451.109z"/>
<path fill="#2AC87D" d="M466.746,27.054c7.322,0,11.075,3.708,11.075,9.778v5.978c0,6.071-3.753,9.732-11.075,9.732
	c-7.229,0-11.028-3.661-11.028-9.732v-5.978C455.718,30.762,459.518,27.054,466.746,27.054 M466.746,33.264
	c-2.688,0-4.03,1.205-4.03,3.476v6.116c0,2.225,1.343,3.476,4.03,3.476c2.734,0,4.078-1.251,4.078-3.476V36.74
	C470.824,34.469,469.48,33.264,466.746,33.264"/>
<path fill="#2AC87D" d="M493.9,27.054c1.251,0,1.715,0.417,1.715,1.715v2.873c0,1.251-0.464,1.668-1.715,1.668h-1.715
	c-1.297,0-2.27,0.093-3.29,0.325c-0.23,0.046-0.278,0.185-0.278,0.324v16.172c0,1.298-0.416,1.715-1.668,1.715h-3.613
	c-1.298,0-1.715-0.417-1.715-1.715V31.179c0-1.53,0.323-2.086,1.853-2.688c1.761-0.695,4.634-1.298,8.898-1.437H493.9z"/>
<path fill="#FFFFFF" d="M181.104,33.296c1.251,0,1.668-0.417,1.668-1.714v-2.781c0-1.297-0.417-1.714-1.668-1.714h-4.309V23.24
	c0-1.298-0.418-1.715-1.669-1.715h-3.614c-1.251,0-1.715,0.417-1.715,1.715v3.847v6.209v8.063c0,8.157,3.337,10.706,11.261,10.473
	c1.297-0.046,1.714-0.417,1.714-1.761v-2.919c0-1.344-0.417-1.761-1.714-1.761c-3.105,0-4.263-0.695-4.263-4.311v-7.785H181.104z"/>
<path d="M45.157,73.199c0,1.962-7.413,3.553-16.556,3.553c-9.144,0-16.557-1.591-16.557-3.553s7.413-3.554,16.557-3.554
	C37.744,69.646,45.157,71.237,45.157,73.199"/>
<path fill="#2AC87D" d="M45.805,5.979H11.396C7.595,5.979,5,9.311,5,13.111V59.81c0,3.801,2.713,6.17,6.514,6.17h7
	c2.686,0,5.083,1.644,6.997,3.528L28.6,72.61l3.089-3.134c1.915-1.885,4.138-3.497,6.825-3.497h7c3.8,0,7.486-1.95,7.486-5.75v-47
	C53,9.429,49.606,5.979,45.805,5.979"/>
<path fill="#006837" d="M48,22.979c0,1.657-1.343,3-3,3H13c-1.657,0-3-1.343-3-3v-8c0-1.657,1.343-3,3-3h32c1.657,0,3,1.343,3,3
	V22.979z"/>
<path fill="#1B805B" d="M47,57.979c0,1.105-0.895,2-2,2H33c-1.105,0-2-0.895-2-2v-9c0-1.104,0.895-2,2-2h12c1.105,0,2,0.896,2,2
	V57.979z"/>
<path fill="#1B805B" d="M27,48.979c0-1.104-0.895-2-2-2H13c-1.105,0-2,0.896-2,2v9c0,1.105,0.895,2,2,2h12c1.105,0,2-0.895,2-2
	V48.979z"/>
<path fill="#1B805B" d="M27,32.979c0-1.105-0.895-2-2-2H13c-1.105,0-2,0.895-2,2v9c0,1.105,0.895,2,2,2h12c1.105,0,2-0.895,2-2
	V32.979z"/>
<path fill="#1B805B" d="M47,32.979c0-1.105-0.895-2-2-2H33c-1.105,0-2,0.895-2,2v9c0,1.105,0.895,2,2,2h12c1.105,0,2-0.895,2-2
	V32.979z"/>
</svg>
