<?xml version="1.0" encoding="utf-8"?>
<!-- Generator: Adobe Illustrator 16.0.4, SVG Export Plug-In . SVG Version: 6.00 Build 0)  -->
<!DOCTYPE svg PUBLIC "-//W3C//DTD SVG 1.1//EN" "http://www.w3.org/Graphics/SVG/1.1/DTD/svg11.dtd">
<svg version="1.1" id="Layer_1" xmlns="http://www.w3.org/2000/svg" xmlns:xlink="http://www.w3.org/1999/xlink" x="0px" y="0px"
	 width="224.657px" height="60.273px" viewBox="0 0 224.657 60.273" enable-background="new 0 0 224.657 60.273"
	 xml:space="preserve">
<g>
	<path fill="#FFFFFF" d="M10.021,45.526c1.024-2.194,9.171-19.559,11.84-22.537c2.847-3.179,4.938-1.866,4.66-0.108L24.29,35.022
		c0,0,5.351-11.597,8.566-16.254c3.543-5.132,6.476-7.206,8.189-7.526c-3.732-2.05-8.112-3.229-12.795-3.229
		c-13.655,0-24.724,10.024-24.724,22.389C3.526,36.232,5.989,41.541,10.021,45.526z"/>
	<g>
		<path fill="#FFFFFF" d="M69.088,34.922h-0.731v-10.8h-2.97v-0.686h6.672v0.686h-2.971V34.922z"/>
		<path fill="#FFFFFF" d="M81.089,28.311v-4.875h0.73v11.485h-0.73v-5.926h-6.977v5.926H73.38V23.437h0.731v4.875H81.089z"/>
		<path fill="#FFFFFF" d="M85.015,24.122v4.174h4.63v0.685h-4.63v5.256h4.752v0.685h-5.484V23.437h5.484v0.686H85.015z"/>
		<path fill="#FFFFFF" d="M106.35,25.417h-0.03l-4.006,9.887l-3.991-9.887h-0.03l-1.965,9.505h-0.701l2.468-11.867l4.219,10.45
			l4.235-10.45l2.468,11.867h-0.701L106.35,25.417z"/>
		<path fill="#FFFFFF" d="M121.608,29.18c0,3.229-2.727,5.895-5.955,5.895c-3.229,0-5.957-2.666-5.957-5.895
			c0-3.229,2.711-5.896,5.957-5.896C118.881,23.284,121.608,25.95,121.608,29.18z M110.428,29.18c0,2.832,2.361,5.21,5.225,5.21
			c2.848,0,5.225-2.392,5.225-5.21c0-2.834-2.377-5.21-5.225-5.21C112.789,23.969,110.428,26.346,110.428,29.18z"/>
		<path fill="#FFFFFF" d="M123.385,23.437h2.072c1.675,0,3,0.274,4.265,1.447c1.203,1.128,1.828,2.666,1.828,4.311
			c0,1.585-0.609,3.094-1.768,4.206c-1.264,1.218-2.62,1.522-4.325,1.522h-2.072V23.437z M125.441,34.238
			c1.509,0,2.758-0.305,3.854-1.387c0.976-0.975,1.522-2.284,1.522-3.657c0-1.462-0.577-2.833-1.659-3.823
			c-1.097-0.991-2.285-1.249-3.718-1.249h-1.325v10.115H125.441z"/>
		<path fill="#FFFFFF" d="M144.083,29.393c0.03,1.447-0.183,2.711-1.203,3.823c-1.096,1.188-2.742,1.858-4.356,1.858
			c-3.185,0-5.896-2.681-5.896-5.849c0-3.291,2.697-5.941,5.986-5.941c2.088,0,3.778,1.036,4.982,2.681L143,26.438
			c-1.021-1.523-2.574-2.468-4.433-2.468c-2.803,0-5.209,2.453-5.209,5.21c0,2.832,2.346,5.21,5.209,5.21
			c1.234,0,2.438-0.504,3.383-1.266c0.99-0.836,1.355-1.797,1.401-3.046h-4.113v-0.686H144.083z"/>
		<path fill="#FFFFFF" d="M146.591,34.238h2.924v0.685h-3.656V23.437h0.732V34.238z"/>
		<path fill="#FFFFFF" d="M151.57,34.922h-0.731V23.437h0.731V34.922z"/>
		<path fill="#FFFFFF" d="M164.411,35.304l-9.644-10.252v9.871h-0.731V23.284l9.644,10.176V23.437h0.731V35.304z"/>
		<path fill="#FFFFFF" d="M182.362,29.393c0.031,1.447-0.182,2.711-1.203,3.823c-1.097,1.188-2.741,1.858-4.356,1.858
			c-3.184,0-5.896-2.681-5.896-5.849c0-3.291,2.696-5.941,5.986-5.941c2.088,0,3.779,1.036,4.981,2.681l-0.595,0.472
			c-1.02-1.523-2.573-2.468-4.432-2.468c-2.803,0-5.21,2.453-5.21,5.21c0,2.832,2.347,5.21,5.21,5.21
			c1.234,0,2.438-0.504,3.382-1.266c0.99-0.836,1.355-1.797,1.401-3.046h-4.114v-0.686H182.362z"/>
		<path fill="#FFFFFF" d="M189.821,34.922h-0.836l-3.748-5.438h-0.366v5.438h-0.73V23.437h1.432c0.93,0,1.843,0.015,2.62,0.579
			c0.822,0.579,1.157,1.493,1.157,2.467c0,1.996-1.387,3.032-3.291,3.001L189.821,34.922z M185.8,28.799
			c0.715,0,1.432-0.031,2.011-0.533c0.549-0.442,0.807-1.127,0.807-1.813c0-0.853-0.396-1.706-1.219-2.072
			c-0.608-0.289-1.387-0.258-2.056-0.258h-0.473v4.677H185.8z"/>
		<path fill="#FFFFFF" d="M202.796,29.18c0,3.229-2.727,5.895-5.955,5.895c-3.23,0-5.957-2.666-5.957-5.895
			c0-3.229,2.711-5.896,5.957-5.896C200.07,23.284,202.796,25.95,202.796,29.18z M191.616,29.18c0,2.832,2.361,5.21,5.226,5.21
			c2.848,0,5.226-2.392,5.226-5.21c0-2.834-2.378-5.21-5.226-5.21C193.977,23.969,191.616,26.346,191.616,29.18z"/>
		<path fill="#FFFFFF" d="M211.534,23.437h0.733v7.159c0,1.173,0,2.179-0.777,3.138c-0.777,0.884-1.966,1.341-3.122,1.341
			c-1.158,0-2.347-0.457-3.123-1.341c-0.777-0.959-0.777-1.965-0.777-3.138v-7.159h0.73v6.946c0,1.036,0,2.133,0.595,2.895
			c0.563,0.731,1.689,1.112,2.575,1.112c0.883,0,2.01-0.381,2.574-1.112c0.592-0.762,0.592-1.858,0.592-2.895V23.437z"/>
		<path fill="#FFFFFF" d="M215.354,34.922h-0.731V23.437h2.026c0.898,0,1.767,0.061,2.483,0.67c0.699,0.594,1.036,1.462,1.036,2.36
			c0,0.824-0.32,1.737-0.961,2.271c-0.701,0.609-1.66,0.731-2.559,0.731h-1.295V34.922z M216.679,28.783
			c0.746,0,1.417-0.092,2.012-0.625c0.502-0.457,0.745-1.051,0.745-1.721c0-0.716-0.289-1.432-0.867-1.858
			c-0.578-0.442-1.312-0.457-2.013-0.457h-1.202v4.661H216.679z"/>
	</g>
	<path fill="#FFFFFF" d="M43.044,12.46c0.155,2.122-3.85,6.489-3.85,13.818c0,9.141,3.245,13.048,4.57,13.048
		c1.326,0,3.777-0.925,2.85,0c-0.928,0.928-2.982,2.188-5.035,2.056c-2.055-0.133-5.786-4.773-6.028-11.725
		c-0.265-7.597,2.053-13.315,2.053-13.315s-6.16,8.611-8.082,12.784c-1.921,4.173-4.51,10.39-5.9,11.252
		c-1.392,0.861-4.213,1.799-3.617-0.52c0.597-2.32,1.436-5.167,2.098-7.95c0.663-2.782,1.326-6.492,1.326-6.492
		s-3.975,8.016-6.691,14.31c-2.047,4.743-3.153,7.076-3.914,8.165c4.229,3.064,9.589,4.899,15.427,4.899
		c13.653,0,24.723-10.024,24.723-22.391C52.972,23.059,49.071,16.544,43.044,12.46z"/>
</g>
</svg>
